<svg width="513" height="513" viewBox="0 0 513 513" fill="none" xmlns="http://www.w3.org/2000/svg">
<path d="M230.674 15.0765C246.763 5.78763 266.585 5.78763 282.674 15.0765L452.376 113.054C468.465 122.343 478.376 139.51 478.376 158.088V354.043C478.376 372.621 468.465 389.788 452.376 399.077L282.674 497.054C266.585 506.343 246.763 506.343 230.674 497.054L60.9713 399.077C44.8825 389.788 34.9713 372.621 34.9713 354.043V158.088C34.9713 139.51 44.8825 122.343 60.9713 113.054L230.674 15.0765Z" fill="#FF4405"/>
<path d="M276.042 42.6318L431.829 132.575C443.814 139.495 451.197 152.283 451.197 166.122V346.009C451.197 359.848 443.814 372.636 431.829 379.555L276.042 469.499C264.057 476.418 249.291 476.418 237.306 469.499L81.5191 379.555C69.5342 372.636 62.1511 359.848 62.1511 346.009V166.122C62.1511 152.283 69.5342 139.495 81.5191 132.575L237.306 42.6318C249.291 35.7123 264.057 35.7123 276.042 42.6318Z" stroke="white" stroke-width="18"/>
<g filter="url(#filter0_dd_8296_40245)">
<path d="M158.232 208.812C158.657 206.14 156.592 203.722 153.887 203.722H110.957C108.221 203.722 106.148 201.252 106.623 198.558L113.507 159.52C113.878 157.417 115.705 155.884 117.84 155.884H272.584C275.32 155.884 277.393 158.354 276.917 161.048L270.034 200.086C269.663 202.189 267.836 203.722 265.701 203.722H219.821C217.658 203.722 215.815 205.295 215.476 207.431L192.266 353.521C191.926 355.658 190.084 357.231 187.92 357.231H139.807C137.101 357.231 135.037 354.812 135.461 352.14L158.232 208.812Z" fill="white"/>
<path d="M242.851 208.998C241.022 208.998 239.369 209.025 238.803 210.765C237.839 213.73 237.077 216.795 236.519 219.961C233.708 235.907 236.699 248.387 245.494 257.4C254.289 266.412 269.79 272.826 291.997 276.639L315.288 280.799C324.662 282.532 331.217 284.785 334.952 287.558C338.894 290.158 340.467 293.711 339.672 298.218C338.694 303.764 335.084 308.271 328.841 311.737C322.773 315.204 315.076 316.937 305.748 316.937C295.188 316.937 286.789 314.164 280.551 308.617C275.589 304.206 272.733 298.588 271.983 291.765C271.674 288.958 269.175 286.737 266.396 287.24L222.011 295.269C220.031 295.627 218.532 297.285 218.479 299.296C217.997 317.562 224.339 331.676 237.505 341.636C251.511 352.036 271.01 357.235 296.002 357.235C313.25 357.235 329.005 354.722 343.268 349.696C357.53 344.669 369.213 337.303 378.316 327.597C387.596 317.89 393.427 306.278 395.811 292.758C398.684 276.465 395.562 263.726 386.446 254.54C377.506 245.353 361.798 239.114 339.323 235.82L315.413 232.181C306.857 230.794 300.785 228.801 297.195 226.201C293.781 223.601 292.472 220.048 293.267 215.541C294.183 210.341 297.029 206.182 301.803 203.062C306.753 199.942 312.924 198.382 320.316 198.382C328.236 198.382 334.439 200.635 338.924 205.142C342.366 208.32 344.42 212.385 345.087 217.335C345.475 220.209 348.062 222.5 350.901 221.911L394.532 212.856C396.501 212.447 397.963 210.754 397.927 208.743C397.761 199.401 395.098 191.094 389.939 183.823C384.19 175.503 375.978 169.176 365.302 164.843C354.657 160.337 342.382 158.084 328.478 158.084C312.99 158.084 298.643 160.597 285.436 165.623C284.131 166.12 283.2 167.279 282.958 168.655L276.679 204.262C276.308 206.364 274.481 208.998 272.346 208.998H242.851Z" fill="white"/>
</g>
<defs>
<filter id="filter0_dd_8296_40245" x="106.555" y="155.884" width="301.373" height="211.352" filterUnits="userSpaceOnUse" color-interpolation-filters="sRGB">
<feFlood flood-opacity="0" result="BackgroundImageFix"/>
<feColorMatrix in="SourceAlpha" type="matrix" values="0 0 0 0 0 0 0 0 0 0 0 0 0 0 0 0 0 0 127 0" result="hardAlpha"/>
<feOffset dx="10" dy="10"/>
<feComposite in2="hardAlpha" operator="out"/>
<feColorMatrix type="matrix" values="0 0 0 0 0 0 0 0 0 0 0 0 0 0 0 0 0 0 0.21 0"/>
<feBlend mode="overlay" in2="BackgroundImageFix" result="effect1_dropShadow_8296_40245"/>
<feColorMatrix in="SourceAlpha" type="matrix" values="0 0 0 0 0 0 0 0 0 0 0 0 0 0 0 0 0 0 127 0" result="hardAlpha"/>
<feOffset dx="10" dy="10"/>
<feComposite in2="hardAlpha" operator="out"/>
<feColorMatrix type="matrix" values="0 0 0 0 0 0 0 0 0 0 0 0 0 0 0 0 0 0 0.12 0"/>
<feBlend mode="normal" in2="effect1_dropShadow_8296_40245" result="effect2_dropShadow_8296_40245"/>
<feBlend mode="normal" in="SourceGraphic" in2="effect2_dropShadow_8296_40245" result="shape"/>
</filter>
</defs>
</svg>
